<!DOCTYPE svg PUBLIC "-//W3C//DTD SVG 1.1//EN" "http://www.w3.org/Graphics/SVG/1.1/DTD/svg11.dtd">
<!-- Uploaded to: SVG Repo, www.svgrepo.com, Transformed by: SVG Repo Mixer Tools -->
<svg height="100px" width="100px" version="1.1" id="Layer_1" xmlns="http://www.w3.org/2000/svg" xmlns:xlink="http://www.w3.org/1999/xlink" viewBox="-114.12 -114.12 724.40 724.40" xml:space="preserve" fill="#000000">
<g id="SVGRepo_bgCarrier" stroke-width="0">
<path transform="translate(-114.12, -114.12), scale(22.6375)" d="M16,30.088664839665093C18.206945991435056,30.555835813992985,20.762740301926208,31.05943563982835,22.67911094161133,29.869316780336334C24.623401646070818,28.661858792933412,24.79667951335671,25.907800542801432,25.93208040351834,23.92056981804629C26.903358036037716,22.22059514801132,28.28008171244237,20.799415344391218,28.918645814751216,18.948596605174586C29.59491868907936,16.988482492738846,30.28811915439778,14.863998277405017,29.747390518660648,12.862247824222688C29.20878561696101,10.868359328575117,27.27944458180992,9.646462619216464,25.973630135800263,8.046295376143695C24.681307696245163,6.462661467372653,23.87234725140747,4.362560251421218,22.052214170284483,3.432447778765983C20.227190205158006,2.4998359986364016,18.01907060532885,2.597739871864537,16,2.949636300404867C14.116949027132256,3.2778263648645636,12.671164345106455,4.69796430419109,10.885065586230311,5.37872924774306C8.922748379478843,6.126659201698007,6.432683290542377,5.705579889178644,4.92741758886444,7.169910180912021C3.4344359187622318,8.622290502935137,3.6061274426155157,11.039101945000635,3.0137606129073244,13.035975603027754C2.385815363511706,15.152784418637976,1.0455618400094822,17.160418731895877,1.3136144051296021,19.352071674406666C1.5855058738613876,21.575112282962547,2.800280901342834,23.71190490053653,4.498124430968192,25.17243968853952C6.141643377154363,26.586242876973845,8.56317855385941,26.451140688973396,10.55666049749519,27.303210945758646C12.45463914093078,28.114460405653706,13.980661394082249,29.661206991722427,16,30.088664839665093" fill="#ffffff" strokewidth="0"/>
</g>
<g id="SVGRepo_tracerCarrier" stroke-linecap="round" stroke-linejoin="round"/>
<g id="SVGRepo_iconCarrier"> <path style="fill:#f60;" d="M496.158,248.085c0-137.021-111.07-248.082-248.076-248.082C111.07,0.002,0,111.062,0,248.085 c0,137.002,111.07,248.071,248.083,248.071C385.088,496.155,496.158,385.086,496.158,248.085z"/> <g> <path style="fill:#FFFFFF;" d="M288.037,236.937l-149.525-91.812c-4.082-2.506-9.453-2.615-13.632-0.275 c-4.255,2.379-6.897,6.887-6.897,11.762v182.901c0,4.867,2.634,9.369,6.877,11.754c2.011,1.129,4.294,1.727,6.603,1.727 c2.475,0,4.899-0.682,7.011-1.969l149.523-91.088c3.98-2.424,6.459-6.826,6.467-11.489 C294.47,243.787,292.008,239.375,288.037,236.937z"/> <path style="fill:#FFFFFF;" d="M369.593,139.057h-51.507c-4.741,0-8.584,3.844-8.584,8.584v200.877c0,4.74,3.843,8.584,8.584,8.584 h51.507c4.74,0,8.583-3.844,8.583-8.584V147.64C378.176,142.9,374.333,139.057,369.593,139.057z"/> </g> </g>
</svg>